<?xml version="1.0" standalone="no"?>
<!DOCTYPE svg PUBLIC "-//W3C//DTD SVG 20010904//EN"
 "http://www.w3.org/TR/2001/REC-SVG-20010904/DTD/svg10.dtd">
<svg version="1.0" xmlns="http://www.w3.org/2000/svg"
 width="456.000000pt" height="160.000000pt" viewBox="0 0 456.000000 160.000000"
 preserveAspectRatio="xMidYMid meet">

<g transform="translate(0.000000,160.000000) scale(0.100000,-0.100000)"
fill="#000000" stroke="none">
<path d="M1328 1469 c-21 -5 -55 -19 -75 -33 -57 -36 -178 -147 -271 -250 -85
-93 -101 -103 -163 -105 -25 -1 -43 -9 -62 -29 -39 -41 -35 -50 20 -44 56 6
62 20 -59 -136 -42 -55 -87 -115 -98 -135 l-22 -36 26 -7 c15 -3 41 -3 59 0
28 6 38 18 85 106 30 54 74 126 98 159 l44 61 74 0 c92 0 136 -14 136 -44 0
-12 -22 -66 -50 -120 -27 -54 -50 -104 -50 -112 0 -24 47 -64 74 -64 20 0 27
6 32 28 18 72 196 487 289 672 26 52 31 70 22 78 -19 16 -69 21 -109 11z m-78
-189 c-15 -51 -63 -130 -97 -161 -42 -36 -72 -44 -135 -33 l-51 9 99 100 c55
55 115 108 134 117 44 21 62 9 50 -32z"/>
<path d="M1655 1471 c-64 -8 -75 -16 -75 -50 0 -39 -68 -174 -230 -454 -77
-134 -140 -251 -140 -260 0 -23 46 -22 102 3 37 16 51 18 84 8 52 -14 167 -5
230 20 126 47 237 155 312 301 115 223 98 383 -45 420 -54 14 -179 20 -238 12z
m225 -76 c41 -37 34 -127 -22 -257 -96 -226 -238 -368 -370 -368 -58 0 -93 27
-82 63 20 66 198 386 277 500 23 32 52 65 66 73 33 18 105 12 131 -11z"/>
<path d="M3150 1470 c-8 -5 -88 -10 -180 -10 -91 0 -170 -4 -177 -8 -7 -4 -17
-29 -23 -55 -13 -62 -42 -117 -196 -384 -69 -120 -137 -237 -150 -260 -13 -23
-24 -47 -24 -54 0 -17 96 -6 118 15 16 14 46 16 200 16 206 0 191 -5 246 93
69 123 56 158 -27 73 -71 -73 -149 -110 -235 -111 -50 0 -66 4 -77 18 -18 25
-5 74 43 155 69 115 98 132 227 132 74 0 87 3 105 22 34 37 26 44 -49 40 -79
-5 -141 11 -141 36 0 24 45 116 76 158 48 62 123 83 173 48 22 -16 23 -22 17
-75 -3 -33 -2 -59 3 -59 31 0 145 146 153 195 2 16 -3 20 -32 23 -19 1 -42 -2
-50 -8z"/>
<path d="M3284 1438 c-45 -64 -104 -164 -104 -177 0 -25 38 -8 80 35 84 85
170 129 170 86 0 -31 -113 -232 -301 -534 -38 -61 -69 -117 -69 -125 0 -9 16
-13 55 -13 71 0 86 16 177 195 39 77 115 216 170 308 104 177 133 207 165 175
12 -13 14 -28 9 -72 -10 -73 -10 -71 12 -74 21 -3 49 35 107 143 49 93 48 99
-17 90 -64 -10 -316 -10 -378 0 -45 7 -46 6 -76 -37z"/>
<path d="M582 1459 c-125 -29 -289 -195 -381 -384 -56 -114 -76 -187 -68 -252
14 -123 116 -145 257 -57 49 31 56 33 65 18 6 -9 18 -26 28 -38 15 -18 19 -19
27 -6 37 57 176 294 196 333 14 26 22 52 19 57 -8 12 -177 13 -228 1 -35 -8
-66 -33 -67 -53 0 -5 18 -8 41 -8 92 0 102 -39 31 -132 -106 -141 -242 -174
-242 -59 0 157 213 487 335 520 17 4 42 3 59 -2 27 -9 28 -12 23 -61 -3 -28
-8 -61 -12 -73 -11 -36 28 -29 75 13 48 44 120 149 120 176 0 18 -5 19 -47 14
-56 -7 -71 -8 -138 -2 -27 3 -69 0 -93 -5z"/>
<path d="M2392 1459 c-73 -17 -189 -104 -264 -198 -146 -182 -217 -382 -174
-486 37 -87 121 -86 267 3 l37 23 20 -36 c12 -19 25 -35 30 -35 5 0 22 24 37
53 16 28 54 93 85 142 86 135 115 196 98 206 -17 11 -160 11 -217 0 -40 -8
-71 -31 -71 -53 0 -4 18 -8 41 -8 92 0 102 -39 32 -131 -111 -145 -243 -175
-243 -56 0 116 101 308 230 439 72 72 114 92 164 75 27 -9 28 -12 23 -61 -3
-28 -8 -61 -12 -73 -11 -36 28 -29 75 13 48 44 120 149 120 176 0 18 -5 19
-47 14 -56 -7 -71 -8 -138 -2 -27 3 -69 0 -93 -5z"/>
<path d="M4514 39 c-10 -17 13 -36 27 -22 12 12 4 33 -11 33 -5 0 -12 -5 -16
-11z"/>
</g>
</svg>
